# xmcd
#
# Track frame offsets: 
#        182
#        16487
#        34702
#        57782
#        70097
#        86807
#        103552
#        120617
#        135920
#        151310
#        170422
#        187382
#        197407
#        209317
#        220187
#        232260
#
# Disc length: 3212 seconds
#
# Revision: 0
# Processed by: cddbd v1.5.2PL0 Copyright (c) Steve Scherf et al.
# Submitted via: ExactAudioCopy v0.99pb3
#
DISCID=df0c8a10
DTITLE=Clarence Green - Guitar Crying The Blues
DYEAR=1990
DGENRE=Blues
TTITLE0=Go For It
TTITLE1=Hard Headed Woman
TTITLE2=Guitar Crying The Blues
TTITLE3=Somebody Driving My Chine
TTITLE4=Little Man
TTITLE5=Look A Yonder Yall
TTITLE6=Please Send Me Someone To Love
TTITLE7=You Got The Best To Go
TTITLE8=Next Time You See Me
TTITLE9=Shoes At The Foot Of My Bed
TTITLE10=Someday
TTITLE11=You Don't Move Me No More
TTITLE12=Mary, My Darling
TTITLE13=House Of So Many Tears
TTITLE14=Green's Rocket
TTITLE15=Just Keep It Up
EXTD=
EXTT0=
EXTT1=
EXTT2=
EXTT3=
EXTT4=
EXTT5=
EXTT6=
EXTT7=
EXTT8=
EXTT9=
EXTT10=
EXTT11=
EXTT12=
EXTT13=
EXTT14=
EXTT15=
PLAYORDER=
